<svg width="29" height="30" viewBox="0 0 29 30" fill="none" xmlns="http://www.w3.org/2000/svg">
<path d="M17.5977 13.75H15.2513V8.75C15.2513 8.41848 15.1277 8.10054 14.9077 7.86612C14.6877 7.6317 14.3893 7.5 14.0782 7.5C13.767 7.5 13.4686 7.6317 13.2486 7.86612C13.0286 8.10054 12.905 8.41848 12.905 8.75V15C12.905 15.3315 13.0286 15.6495 13.2486 15.8839C13.4686 16.1183 13.767 16.25 14.0782 16.25H17.5977C17.9089 16.25 18.2073 16.1183 18.4273 15.8839C18.6473 15.6495 18.7709 15.3315 18.7709 15C18.7709 14.6685 18.6473 14.3505 18.4273 14.1161C18.2073 13.8817 17.9089 13.75 17.5977 13.75ZM14.0782 2.5C11.7578 2.5 9.48959 3.23311 7.5603 4.60663C5.63101 5.98015 4.12731 7.93238 3.23935 10.2165C2.3514 12.5005 2.11907 15.0139 2.57174 17.4386C3.02442 19.8634 4.14177 22.0907 5.7825 23.8388C7.42322 25.587 9.51364 26.7775 11.7894 27.2598C14.0652 27.7421 16.424 27.4946 18.5677 26.5485C20.7115 25.6024 22.5437 24.0002 23.8328 21.9446C25.1219 19.889 25.81 17.4723 25.81 15C25.81 13.3585 25.5066 11.733 24.917 10.2165C24.3274 8.69989 23.4632 7.3219 22.3738 6.16117C21.2844 5.00043 19.9911 4.07969 18.5677 3.45151C17.1444 2.82332 15.6188 2.5 14.0782 2.5ZM14.0782 25C12.2219 25 10.4073 24.4135 8.86387 23.3147C7.32044 22.2159 6.11748 20.6541 5.40711 18.8268C4.69675 16.9996 4.51089 14.9889 4.87303 13.0491C5.23517 11.1093 6.12905 9.32746 7.44163 7.92893C8.75421 6.53041 10.4265 5.578 12.2471 5.19215C14.0678 4.8063 15.9549 5.00433 17.6698 5.7612C19.3848 6.51808 20.8506 7.79981 21.8819 9.4443C22.9132 11.0888 23.4636 13.0222 23.4636 15C23.4636 17.6522 22.4748 20.1957 20.7147 22.0711C18.9546 23.9464 16.5673 25 14.0782 25Z" fill="white"/>
</svg>
