<svg width="29" height="30" viewBox="0 0 29 30" fill="none" xmlns="http://www.w3.org/2000/svg">
<path fill-rule="evenodd" clip-rule="evenodd" d="M23.4636 15C23.4636 20.5228 19.2616 25 14.0782 25C8.8947 25 4.69268 20.5228 4.69268 15C4.69268 9.47715 8.8947 5 14.0782 5C19.2616 5 23.4636 9.47715 23.4636 15ZM25.81 15C25.81 21.9036 20.5575 27.5 14.0782 27.5C7.59884 27.5 2.34631 21.9036 2.34631 15C2.34631 8.09644 7.59884 2.5 14.0782 2.5C20.5575 2.5 25.81 8.09644 25.81 15ZM14.0782 11.25C13.2682 11.25 12.6117 10.5504 12.6117 9.6875C12.6117 8.82456 13.2682 8.125 14.0782 8.125C14.8881 8.125 15.5446 8.82456 15.5446 9.6875C15.5446 10.5504 14.8881 11.25 14.0782 11.25ZM14.0664 21.875C13.4185 21.875 12.8932 21.3154 12.8932 20.625V14.375C12.8932 13.6846 13.4185 13.125 14.0664 13.125C14.7143 13.125 15.2396 13.6846 15.2396 14.375V20.625C15.2396 21.3154 14.7143 21.875 14.0664 21.875Z" fill="white"/>
</svg>
