<svg width="29" height="30" viewBox="0 0 29 30" fill="none" xmlns="http://www.w3.org/2000/svg">
<path d="M25.0122 11.9375L22.7949 11.15L23.8391 8.925C23.9449 8.69211 23.9803 8.42996 23.9404 8.17472C23.9005 7.91948 23.7872 7.68373 23.6162 7.5L21.1173 4.8375C20.9439 4.65261 20.7205 4.53026 20.4785 4.48766C20.2365 4.44506 19.9881 4.48435 19.7681 4.6L17.6798 5.7125L16.9407 3.35C16.8627 3.10374 16.7145 2.88954 16.5169 2.73719C16.3192 2.58484 16.0819 2.50193 15.8379 2.5H12.3184C12.0724 2.49933 11.8325 2.58103 11.6325 2.73356C11.4325 2.88609 11.2826 3.10173 11.2039 3.35L10.4648 5.7125L8.37649 4.6C8.1579 4.48723 7.91186 4.44951 7.67231 4.49205C7.43275 4.53459 7.21149 4.65529 7.03905 4.8375L4.54017 7.5C4.36664 7.68471 4.25181 7.92272 4.21183 8.18057C4.17184 8.43842 4.20872 8.70314 4.31727 8.9375L5.3614 11.1625L3.14408 11.95C2.91296 12.0332 2.71191 12.191 2.56893 12.4016C2.42594 12.6122 2.34813 12.8651 2.34632 13.125V16.875C2.34568 17.1371 2.42236 17.3927 2.56552 17.6058C2.70867 17.8189 2.91106 17.9786 3.14408 18.0625L5.3614 18.85L4.31727 21.075C4.21142 21.3079 4.17602 21.57 4.21595 21.8253C4.25587 22.0805 4.36916 22.3163 4.54017 22.5L7.03905 25.1625C7.21241 25.3474 7.4358 25.4697 7.6778 25.5123C7.91981 25.5549 8.16826 25.5157 8.38822 25.4L10.4765 24.2875L11.2156 26.65C11.2943 26.8983 11.4442 27.1139 11.6442 27.2665C11.8442 27.419 12.0842 27.5007 12.3301 27.5H15.8497C16.0956 27.5007 16.3356 27.419 16.5355 27.2665C16.7355 27.1139 16.8855 26.8983 16.9642 26.65L17.7033 24.2875L19.7916 25.4C20.0088 25.5099 20.2524 25.5461 20.4895 25.5036C20.7266 25.4611 20.9458 25.3421 21.1173 25.1625L23.6162 22.5C23.7897 22.3153 23.9045 22.0773 23.9445 21.8194C23.9845 21.5616 23.9476 21.2969 23.8391 21.0625L22.7949 18.8375L25.0122 18.05C25.2434 17.9668 25.4444 17.809 25.5874 17.5984C25.7304 17.3878 25.8082 17.1349 25.81 16.875V13.125C25.8106 12.8629 25.734 12.6073 25.5908 12.3942C25.4477 12.1811 25.2453 12.0214 25.0122 11.9375ZM23.4636 15.975L22.0558 16.475C21.7321 16.5869 21.4351 16.7725 21.1854 17.0189C20.9357 17.2653 20.7393 17.5666 20.6098 17.902C20.4803 18.2373 20.4209 18.5987 20.4356 18.961C20.4503 19.3233 20.5388 19.6778 20.6949 20L21.3636 21.425L20.0731 22.8L18.7709 22.05C18.47 21.8903 18.1405 21.8013 17.8046 21.7891C17.4686 21.7769 17.1342 21.8418 16.8238 21.9792C16.5134 22.1167 16.2344 22.3237 16.0056 22.5861C15.7768 22.8484 15.6036 23.1601 15.4977 23.5L15.0284 25H13.1631L12.6938 23.5C12.5888 23.1551 12.4146 22.8386 12.1833 22.5726C11.9521 22.3065 11.6693 22.0973 11.3545 21.9593C11.0398 21.8214 10.7006 21.758 10.3606 21.7737C10.0206 21.7894 9.68783 21.8836 9.38542 22.05L8.04799 22.7625L6.75749 21.3875L7.4614 20C7.61755 19.6778 7.70603 19.3233 7.72073 18.961C7.73542 18.5987 7.67597 18.2373 7.5465 17.902C7.41703 17.5666 7.22064 17.2653 6.97095 17.0189C6.72125 16.7725 6.42424 16.5869 6.10051 16.475L4.69269 15.975V14.025L6.10051 13.525C6.42424 13.4131 6.72125 13.2275 6.97095 12.9811C7.22064 12.7347 7.41703 12.4334 7.5465 12.098C7.67597 11.7627 7.73542 11.4013 7.72073 11.039C7.70603 10.6768 7.61755 10.3222 7.4614 10L6.79269 8.6125L8.08319 7.2375L9.38542 7.95C9.68783 8.11637 10.0206 8.21065 10.3606 8.22631C10.7006 8.24197 11.0398 8.17863 11.3545 8.04068C11.6693 7.90273 11.9521 7.69348 12.1833 7.42744C12.4146 7.16139 12.5888 6.84493 12.6938 6.5L13.1631 5H14.9932L15.4625 6.5C15.5675 6.84493 15.7417 7.16139 15.973 7.42744C16.2042 7.69348 16.4871 7.90273 16.8018 8.04068C17.1166 8.17863 17.4557 8.24197 17.7957 8.22631C18.1357 8.21065 18.4685 8.11637 18.7709 7.95L20.1083 7.2375L21.3988 8.6125L20.6949 10C20.545 10.3206 20.4615 10.6717 20.4501 11.0296C20.4386 11.3875 20.4995 11.7439 20.6285 12.0746C20.7576 12.4053 20.9518 12.7026 21.198 12.9464C21.4443 13.1901 21.7368 13.3747 22.0558 13.4875L23.4636 13.9875V15.975ZM14.0782 10C13.15 10 12.2427 10.2932 11.471 10.8427C10.6993 11.3921 10.0978 12.173 9.74264 13.0866C9.38745 14.0002 9.29452 15.0056 9.47559 15.9755C9.65666 16.9454 10.1036 17.8363 10.7599 18.5355C11.4162 19.2348 12.2524 19.711 13.1627 19.9039C14.073 20.0969 15.0165 19.9978 15.874 19.6194C16.7315 19.241 17.4644 18.6001 17.98 17.7779C18.4957 16.9556 18.7709 15.9889 18.7709 15C18.7709 13.6739 18.2765 12.4022 17.3964 11.4645C16.5164 10.5268 15.3228 10 14.0782 10V10ZM14.0782 17.5C13.6141 17.5 13.1604 17.3534 12.7746 17.0787C12.3887 16.804 12.088 16.4135 11.9104 15.9567C11.7328 15.4999 11.6863 14.9972 11.7769 14.5123C11.8674 14.0273 12.0909 13.5819 12.419 13.2322C12.7472 12.8826 13.1653 12.6445 13.6204 12.548C14.0756 12.4516 14.5473 12.5011 14.9761 12.6903C15.4048 12.8795 15.7713 13.2 16.0291 13.6111C16.2869 14.0222 16.4245 14.5056 16.4245 15C16.4245 15.663 16.1773 16.2989 15.7373 16.7678C15.2973 17.2366 14.7005 17.5 14.0782 17.5Z" fill="white"/>
</svg>
